reemkufi-regular.sfdir
StartChar: parenleft
Encoding: 40 40 204
Width: 310
VWidth: 0
Flags: MW
LayerCount: 3
Fore
SplineSet
285 700 m 1
 137 606 50 454 50 300 c 0
 50 147 136 -7 285 -100 c 1
 189 -6 129 146 129 300 c 0
 129 453 188 607 285 700 c 1
EndSplineSet
EndChar
StartChar: uni0661
Encoding: 1633 1633 175
Width: 500
VWidth: 0
Flags: MW
LayerCount: 3
Fore
SplineSet
200 0 m 9
 200 578 l 25
 300 600 l 25
 300 0 l 17
 200 0 l 9
EndSplineSet
EndChar
StartChar: uni0662
Encoding: 1634 1634 176
Width: 500
VWidth: 0
Flags: MW
LayerCount: 3
Fore
SplineSet
390 500 m 1
 310 500 l 2
 254 500 210 485 210 410 c 2
 210 0 l 1
 110 0 l 1
 110 410 l 2
 110 617 270 600 390 600 c 1
 390 500 l 1
EndSplineSet
EndChar
StartChar: uni0663
Encoding: 1635 1635 177
Width: 500
VWidth: 0
Flags: MW
LayerCount: 3
Fore
SplineSet
50 300 m 1
 440 300 l 1
 440 300 480 298 480 323 c 2
 480 600 l 1
 380 578 l 1
 380 400 l 1
 300 400 l 1
 300 600 l 1
 200 577 l 1
 200 399 l 1
 50 399 l 1
 50 300 l 1
120 599 m 1
 20 577 l 1
 20 0 l 1
 120 0 l 1
 120 599 l 1
EndSplineSet
EndChar
StartChar: uni0664
Encoding: 1636 1636 178
Width: 500
VWidth: 0
Flags: MW
LayerCount: 3
Fore
SplineSet
299 622 m 5
 359 542 l 5
 184 414 l 5
 349 275 l 1
 183 100 l 1
 440 100 l 1
 440 0 l 1
 111 0 l 1
 98 8 l 2
 31 53 68 125 98 155 c 2
 209 267 l 1
 121 336 l 6
 103 352 76 380 79 423 c 4
 81 456 103 479 125 494 c 6
 299 622 l 5
EndSplineSet
EndChar
StartChar: uni0665
Encoding: 1637 1637 179
Width: 500
VWidth: 0
Flags: MW
LayerCount: 3
Fore
SplineSet
250 50 m 1
 102 281 l 9
 102 73 l 18
 102 48 142 50 142 50 c 2
 250 50 l 1
300 450 m 9
 300 200 l 2
 300 172 278 150 250 150 c 2
 200 150 l 9
 200 247.5 200 400 200 400 c 2
 200 428 222 450 250 450 c 2
 300 450 l 9
398 200 m 0
 398 400 l 0
 398 483 332 550 250 550 c 0
 168 550 102 483 102 400 c 0
 102 200 l 0
 102 117 168 50 250 50 c 0
 332 50 398 117 398 200 c 0
398 400 m 9
 398 600 l 1
 371 548 285 550 250 550 c 1
 398 400 l 9
EndSplineSet
EndChar
StartChar: uni0667
Encoding: 1639 1639 181
Width: 500
VWidth: 0
Flags: MW
LayerCount: 3
Fore
SplineSet
53 565 m 1
 143 612 l 1
 301 26 l 1
 205 0 l 1
 53 565 l 1
205 19 m 1
 295 19 l 1
 295 0 l 1
 205 0 l 1
 205 19 l 1
447 565 m 1
 295 0 l 1
 199 26 l 1
 357 612 l 1
 447 565 l 1
EndSplineSet
EndChar
StartChar: uni0668
Encoding: 1640 1640 182
Width: 500
VWidth: 0
Flags: MW
LayerCount: 3
Fore
SplineSet
204 581 m 1
 294 581 l 1
 294 600 l 1
 204 600 l 1
 204 581 l 1
456 0 m 1
 294 600 l 1
 198 574 l 1
 352 0 l 1
 456 0 l 1
148 0 m 1
 302 574 l 1
 204 600 l 1
 44 0 l 1
 148 0 l 1
EndSplineSet
EndChar
StartChar: uni0669
Encoding: 1641 1641 183
Width: 500
VWidth: 0
Flags: MW
LayerCount: 3
Fore
SplineSet
340 246 m 1
 263 250 162 223 90 326 c 0
 28 427 70 542 149 587 c 0
 220 633 350 630 412 535 c 0
 430 507 440 473 440 435 c 2
 440 0 l 1
 340 0 l 1
 340 246 l 1
340 346 m 1
 340 435 l 2
 340 457 334 471 327 482 c 0
 300 520 229 520 201 501 c 0
 171 485 143 433 174 380 c 0
 207 333 231 351 340 346 c 1
EndSplineSet
EndChar
StartChar: uni06F4
Encoding: 1780 1780 197
Width: 500
VWidth: 0
Flags: MW
LayerCount: 3
Fore
SplineSet
411 400 m 17
 378 400 l 2
 345 400 295 412 295 466 c 3
 295 514 332 537 364 537 c 3
 401 537 429 520 439 514 c 1
 430 546 401 594 319 594 c 3
 242 594 186 519 188 416 c 2
 188 346 l 1
 412 346 l 9
 411 400 l 17
50 400 m 1
 50 300 l 1
 458 300 l 1
 480 400 l 1
 50 400 l 1
120 599 m 1
 20 577 l 1
 20 0 l 1
 120 0 l 1
 120 599 l 1
EndSplineSet
EndChar
StartChar: uni06F6
Encoding: 1782 1782 198
Width: 500
VWidth: 0
Flags: MW
LayerCount: 3
Fore
SplineSet
192 350 m 1
 68 428 144 600 259 600 c 0
 308 600 351 573 373 524 c 1
 344 549 308 559 280 554 c 0
 247 549 219 517 219 484 c 0
 219 433 269 388 308 400 c 2
 440 440 l 1
 402 340 l 1
 223 295 96 108 60 0 c 1
 60 26 64 216 192 350 c 1
EndSplineSet
EndChar
StartChar: ar1DotAbove.mark
Encoding: 65631 -1 153
Width: 0
VWidth: 0
GlyphClass: 4
Flags: MW
LayerCount: 3
Fore
SplineSet
-58 0 m 0
 -58 32 -32 58 0 58 c 0
 32 58 58 32 58 0 c 0
 58 -32 32 -58 0 -58 c 0
 -32 -58 -58 -32 -58 0 c 0
EndSplineSet
Layer: 2
SplineSet
-58 0 m 0
 -58 32 -32 58 0 58 c 0
 32 58 58 32 58 0 c 0
 58 -32 32 -58 0 -58 c 0
 -32 -58 -58 -32 -58 0 c 0
EndSplineSet
EndChar
StartChar: arAin.fina
Encoding: 65570 -1 93
Width: 430
VWidth: 0
Flags: W
HStem: 0 100<152.716 198 325 450> 494.5 116<110.25 199.75>
VStem: 25 101<-124.794 -25.613> 97 116<507.75 597.25> 225 100<50 378>
LayerCount: 2
Fore
SplineSet
97 552.5 m 0xd8
 97 584.515625 122.984375 610.5 155 610.5 c 0
 187.015625 610.5 213 584.515625 213 552.5 c 0
 213 520.484375 187.015625 494.5 155 494.5 c 0
 122.984375 494.5 97 520.484375 97 552.5 c 0xd8
251 31 m 25
 29 273 l 1
 95 364 l 1
 332 106 l 25
 251 31 l 25
225 50 m 25
 225 378 l 1
 325 400 l 1
 325 50 l 25
 225 50 l 25
171 100 m 2
 450 100 l 1
 450 0 l 1
 198 0 l 2
 172 0 126 -31 126 -72 c 0
 126 -180 307 -169 371 -147 c 1
 325 -202 208 -223 132 -200 c 0
 75 -182 25 -131 25 -60 c 0xe8
 25 23 70 100 171 100 c 2
EndSplineSet
EndChar
StartChar: arAin.fina1
Encoding: 65571 -1 94
Width: 490
VWidth: 0
Flags: W
HStem: 0 100<152.716 198 330 510> 300 100<202 318> 494.5 116<210.25 299.75>
VStem: 25 101<-124.794 -25.613> 197 116<507.75 597.25>
LayerCount: 2
Fore
SplineSet
197 552.5 m 0
 197 584.515625 222.984375 610.5 255 610.5 c 0
 287.015625 610.5 313 584.515625 313 552.5 c 0
 313 520.484375 287.015625 494.5 255 494.5 c 0
 222.984375 494.5 197 520.484375 197 552.5 c 0
318 300 m 1
 202 300 l 1
 330 76 l 9
 243 26 l 25
 31 400 l 1
 490 400 l 1
 277 26 l 25
 191 76 l 17
 318 300 l 1
171 100 m 2
 510 100 l 1
 510 0 l 1
 198 0 l 2
 172 0 126 -31 126 -72 c 0
 126 -180 307 -169 371 -147 c 1
 325 -202 208 -223 132 -200 c 0
 75 -182 25 -131 25 -60 c 0
 25 23 70 100 171 100 c 2
EndSplineSet
EndChar
StartChar: arAin.init
Encoding: 65574 -1 97
Width: 535
VWidth: 0
Flags: MW
LayerCount: 2
Fore
SplineSet
95 500 m 0
 95 532 121 558 153 558 c 0
 185 558 211 532 211 500 c 0
 211 468 185 442 153 442 c 0
 121 442 95 468 95 500 c 0
96 100 m 1
 68 116 66 165 78 183 c 0
 94 208 144 259 306 311 c 1
 313 302 l 1
 233 265 193 233 179 200 c 0
 172 183 175 158 187 146 c 0
 206 126 230 100 270 100 c 2
 510 100 l 1
 450 0 l 1
 -20 0 l 1
 -20 100 l 1
 96 100 l 1
EndSplineSet
EndChar
StartChar: arAin.isol
Encoding: 65569 -1 92
Width: 370
VWidth: 0
Flags: MW
LayerCount: 3
Fore
SplineSet
25 -60 m 0
 25 -10 46 18 70 42 c 1
 -30 127 44 300 159 300 c 0
 208 300 251 273 273 224 c 1
 244 249 208 259 180 254 c 0
 147 249 119 217 119 184 c 0
 119 133 167 100 208 100 c 2
 340 100 l 1
 280 0 l 1
 198 0 l 2
 172 0 126 -31 126 -72 c 0
 126 -180 306 -169 370 -147 c 1
 324 -202 208 -223 132 -200 c 0
 75 -182 25 -131 25 -60 c 0
EndSplineSet
Layer: 2
Refer: 153 -1 N 1 0 0 1 155 500 2
EndChar
StartChar: arAin.medi
Encoding: 65572 -1 95
Width: 350
VWidth: 0
Flags: MW
LayerCount: 3
Fore
SplineSet
-20 100 m 9
 370 100 l 1
 370 0 l 1
 -20 0 l 17
 -20 100 l 9
181 31 m 25
 -41 273 l 1
 25 364 l 1
 262 106 l 25
 181 31 l 25
155 50 m 25
 155 378 l 1
 255 400 l 1
 255 50 l 25
 155 50 l 25
EndSplineSet
Layer: 2
Refer: 153 -1 N 1 0 0 1 85 550 2
EndChar
StartChar: arAin.medi2
Encoding: 65573 -1 96
Width: 460
VWidth: 0
Flags: MW
LayerCount: 2
Fore
SplineSet
166 552.5 m 0
 166 584.515625 191.984375 610.5 224 610.5 c 0
 256.015625 610.5 282 584.515625 282 552.5 c 0
 282 520.484375 256.015625 494.5 224 494.5 c 0
 191.984375 494.5 166 520.484375 166 552.5 c 0
287 300 m 1
 171 300 l 1
 299 76 l 9
 212 26 l 25
 0 400 l 1
 460 400 l 1
 246 26 l 25
 160 76 l 17
 287 300 l 1
-20 100 m 9
 480 100 l 1
 480 0 l 1
 -20 0 l 17
 -20 100 l 9
EndSplineSet
EndChar
StartChar: arAlef.fina
Encoding: 65540 -1 63
Width: 225
VWidth: 0
Flags: MW
LayerCount: 2
Fore
SplineSet
125 800 m 25
 125 100 l 17
 245 100 l 1
 245 0 l 1
 65 0 l 2
 65 0 25 -2 25 23 c 10
 25 778 l 25
 125 800 l 25
EndSplineSet
Refer: 163 -1 N 1 0 0 1 90 -50 2
Refer: 152 -1 N 1 0 0 1 90 850 2
EndChar
StartChar: arAlef.fina1Lam
Encoding: 65618 -1 141
Width: 0
VWidth: 0
Flags: MW
LayerCount: 3
Back
SplineSet
325 350 m 0
 325 267 257 200 175 200 c 0
 93 200 25 267 25 350 c 0
 125 350 l 0
 125 322 147 300 175 300 c 0
 203 300 225 322 225 350 c 0
 325 350 l 0
125 150 m 0
 125 122 147 100 175 100 c 0
 203 100 225 122 225 150 c 0
 225 178 203 200 175 200 c 0
 147 200 125 178 125 150 c 0
25 150 m 0
 25 233 93 300 175 300 c 0
 257 300 324 233 324 150 c 0
 324 67 257 0 175 0 c 0
 93 0 25 67 25 150 c 0
25 350 m 9
 25 778 l 25
 125 800 l 25
 125 300 l 17
 25 350 l 9
225 300 m 9
 225 800 l 25
 325 778 l 25
 325 350 l 17
 225 300 l 9
EndSplineSet
Fore
SplineSet
25 350 m 9
 25 778 l 25
 125 800 l 25
 125 300 l 17
 25 350 l 9
EndSplineSet
Layer: 2
Refer: 152 -1 N 1 0 0 1 90 850 2
Refer: 163 -1 N 1 0 0 1 90 -50 2
Refer: 165 -1 N 1 0 0 1 90 850 2
Refer: 170 -1 N 1 0 0 1 90 850 2
EndChar
StartChar: arAlef.finaLam
Encoding: 65616 -1 139
Width: 0
VWidth: 0
Flags: MW
LayerCount: 2
Back
SplineSet
325 150 m 0
 325 67 257 0 175 0 c 0
 93 0 25 67 25 150 c 0
 125 150 l 0
 125 122 147 100 175 100 c 0
 203 100 225 122 225 150 c 0
 325 150 l 0
125 -50 m 0
 125 -78 147 -100 175 -100 c 0
 203 -100 225 -78 225 -50 c 0
 225 -22 203 0 175 0 c 0
 147 0 125 -22 125 -50 c 0
25 -50 m 0
 25 33 93 100 175 100 c 0
 257 100 324 33 324 -50 c 0
 324 -133 257 -200 175 -200 c 0
 93 -200 25 -133 25 -50 c 0
225 100 m 9
 225 800 l 25
 325 778 l 25
 325 150 l 17
 225 100 l 9
EndSplineSet
Fore
SplineSet
25 150 m 9
 25 778 l 25
 125 800 l 25
 125 100 l 17
 25 150 l 9
EndSplineSet
Refer: 170 -1 N 1 0 0 1 90 850 2
Refer: 165 -1 N 1 0 0 1 90 850 2
Refer: 163 -1 N 1 0 0 1 90 -230 2
Refer: 152 -1 N 1 0 0 1 90 850 2
EndChar
StartChar: arAlef.isol
Encoding: 65536 -1 59
Width: 220
VWidth: 0
Flags: W
VStem: 25 100<49.9455 778>
LayerCount: 2
Fore
SplineSet
125 800 m 25
 125 80 l 18
 125 33 195 46 220 58 c 1
 199 -17 25 -40 25 80 c 10
 25 778 l 25
 125 800 l 25
EndSplineSet
EndChar
StartChar: arAlef.isol1
Encoding: 65537 -1 60
Width: 313
VWidth: 0
Flags: MW
LayerCount: 2
Fore
SplineSet
125 800 m 25
 125 100 l 18
 125 53 204 18 313 72 c 1
 246 -35 25 -38 25 100 c 10
 25 778 l 25
 125 800 l 25
EndSplineSet
Refer: 165 -1 N 1 0 0 1 90 850 2
Refer: 163 -1 N 1 0 0 1 140 -50 2
Refer: 152 -1 N 1 0 0 1 140 850 2
EndChar
StartChar: arAlef.isol2
Encoding: 65538 -1 61
Width: 418
VWidth: 0
Flags: W
VStem: 25 100<85.9707 778>
LayerCount: 2
Fore
SplineSet
125 800 m 25
 125 120 l 18
 125 43 294 40 418 101 c 1
 340 -7 25 -78 25 120 c 10
 25 778 l 25
 125 800 l 25
EndSplineSet
EndChar
StartChar: arAlef.isol3
Encoding: 65539 -1 62
Width: 175
VWidth: 0
Flags: MW
LayerCount: 2
Fore
SplineSet
150 80 m 18
 150 -10 31 -32 0 25 c 1
 6 25 50 10 50 80 c 10
 50 778 l 25
 150 800 l 25
 150 80 l 18
EndSplineSet
Refer: 152 -1 N 1 0 0 1 90 850 2
EndChar
StartChar: arBeh.fina
Encoding: 65542 -1 65
Width: 925
VWidth: 0
Flags: MW
LayerCount: 2
Fore
SplineSet
825 300 m 25
 825 100 l 17
 945 100 l 1
 945 0 l 9
 25 0 l 1
 85 100 l 1
 725 100 l 9
 725 278 l 25
 825 300 l 25
EndSplineSet
Refer: 164 -1 N 1 0 0 1 400 332 2
Refer: 159 -1 N 1 0 0 1 410 -150 2
Refer: 156 -1 N 1 0 0 1 410 390 2
Refer: 153 -1 N 1 0 0 1 410 390 2
Refer: 161 -1 N 1 0 0 1 410 -150 2
Refer: 158 -1 N 1 0 0 1 410 -150 2
Refer: 154 -1 N 1 0 0 1 410 390 2
EndChar
StartChar: arBeh.init
Encoding: 65543 -1 66
Width: 225
VWidth: 0
Flags: MW
LayerCount: 2
Fore
SplineSet
112 482.5 m 0
 112 514.515625 137.984375 540.5 170 540.5 c 0
 202.015625 540.5 228 514.515625 228 482.5 c 0
 228 450.484375 202.015625 424.5 170 424.5 c 0
 137.984375 424.5 112 450.484375 112 482.5 c 0
-61 482.5 m 0
 -61 514.515625 -35.015625 540.5 -3 540.5 c 0
 29.015625 540.5 55 514.515625 55 482.5 c 0
 55 450.484375 29.015625 424.5 -3 424.5 c 0
 -35.015625 424.5 -61 450.484375 -61 482.5 c 0
25 629.5 m 0
 25 661.515625 50.984375 687.5 83 687.5 c 0
 115.015625 687.5 141 661.515625 141 629.5 c 0
 141 597.484375 115.015625 571.5 83 571.5 c 0
 50.984375 571.5 25 597.484375 25 629.5 c 0
25 -155.5 m 0
 25 -123.484375 50.984375 -97.5 83 -97.5 c 0
 115.015625 -97.5 141 -123.484375 141 -155.5 c 0
 141 -187.515625 115.015625 -213.5 83 -213.5 c 0
 50.984375 -213.5 25 -187.515625 25 -155.5 c 0
200 300 m 25
 200 23 l 18
 200 -2 160 0 160 0 c 2
 -20 0 l 1
 -20 100 l 1
 100 100 l 9
 100 278 l 25
 200 300 l 25
EndSplineSet
EndChar
StartChar: arBeh.initHah
Encoding: 65551 -1 74
Width: 0
VWidth: 0
Flags: W
VStem: -365 100<201.453 378>
LayerCount: 2
Back
SplineSet
-502 -155.5 m 0xec
 -502 -123.484375 -476.015625 -97.5 -444 -97.5 c 0
 -411.984375 -97.5 -386 -123.484375 -386 -155.5 c 0
 -386 -187.515625 -411.984375 -213.5 -444 -213.5 c 0
 -476.015625 -213.5 -502 -187.515625 -502 -155.5 c 0xec
-570 450.5 m 0xf4
 -570 482.515625 -544.015625 508.5 -512 508.5 c 0
 -479.984375 508.5 -454 482.515625 -454 450.5 c 0
 -454 418.484375 -479.984375 392.5 -512 392.5 c 0
 -544.015625 392.5 -570 418.484375 -570 450.5 c 0xf4
-512 100 m 1
 -540 116 -574 157 -590 183 c 1
 -534 290 l 1
 -464 179 -365 100 -269 100 c 2
 -25 100 l 1
 -85 0 l 1
 -705 0 l 1
 -705 100 l 1
 -512 100 l 1
EndSplineSet
Fore
SplineSet
-265 300 m 18
 -265 117 -400 158 -435 165 c 1
 -360 175 -365 230 -365 300 c 10
 -365 378 l 25
 -265 400 l 25
 -265 300 l 18
EndSplineSet
EndChar
StartChar: arBeh.isol
Encoding: 65541 -1 64
Width: 850
VWidth: 0
Flags: W
HStem: -213.5 116<368.25 457.75> 0 100<85 725> 329.5 116<282.25 371.75 455.25 544.75> 476.5 116<368.25 457.75>
VStem: 269 116<342.75 432.25> 355 116<-200.25 -110.75 489.75 579.25> 442 116<342.75 432.25> 725 100<100 278>
LayerCount: 2
Fore
SplineSet
442 387.5 m 0xf3
 442 419.515625 467.984375 445.5 500 445.5 c 0
 532.015625 445.5 558 419.515625 558 387.5 c 0
 558 355.484375 532.015625 329.5 500 329.5 c 0
 467.984375 329.5 442 355.484375 442 387.5 c 0xf3
269 387.5 m 0xf9
 269 419.515625 294.984375 445.5 327 445.5 c 0
 359.015625 445.5 385 419.515625 385 387.5 c 0
 385 355.484375 359.015625 329.5 327 329.5 c 0
 294.984375 329.5 269 355.484375 269 387.5 c 0xf9
355 534.5 m 0xf5
 355 566.515625 380.984375 592.5 413 592.5 c 0
 445.015625 592.5 471 566.515625 471 534.5 c 0
 471 502.484375 445.015625 476.5 413 476.5 c 0
 380.984375 476.5 355 502.484375 355 534.5 c 0xf5
355 -155.5 m 0
 355 -123.484375 380.984375 -97.5 413 -97.5 c 0
 445.015625 -97.5 471 -123.484375 471 -155.5 c 0
 471 -187.515625 445.015625 -213.5 413 -213.5 c 0
 380.984375 -213.5 355 -187.515625 355 -155.5 c 0
825 300 m 25
 825 23 l 18
 825 -2 785 0 785 0 c 2
 25 0 l 1
 85 100 l 1
 725 100 l 9
 725 278 l 25
 825 300 l 25
EndSplineSet
EndChar
StartChar: arBeh.medi
Encoding: 65544 -1 67
Width: 300
VWidth: 0
Flags: MW
LayerCount: 2
Fore
SplineSet
200 300 m 25
 200 100 l 17
 320 100 l 1
 320 0 l 9
 -20 0 l 1
 -20 100 l 1
 100 100 l 9
 100 278 l 25
 200 300 l 25
EndSplineSet
Refer: 164 -1 N 1 0 0 1 75 422 2
Refer: 159 -1 N 1 0 0 1 83 -150 2
Refer: 156 -1 N 1 0 0 1 83 483 2
Refer: 153 -1 N 1 0 0 1 83 483 2
Refer: 161 -1 N 1 0 0 1 83 -150 2
Refer: 158 -1 N 1 0 0 1 83 -150 2
Refer: 154 -1 N 1 0 0 1 83 483 2
EndChar
StartChar: arDal.fina
Encoding: 65554 -1 77
Width: 920
VWidth: 0
Flags: W
HStem: 0 100<85 720 820 940> 200 100<225 696.573> 442.5 116<390.25 479.75>
VStem: 377 116<455.75 545.25> 720 100<100 173.859>
LayerCount: 2
Fore
SplineSet
940 100 m 1
 940 0 l 25
 25 0 l 1
 85 100 l 1
 720 100 l 1
 721 156 705 200 630 200 c 2
 135 200 l 1
 267 420 l 1
 277 413 l 1
 225 300 l 1
 630 300 l 2
 794 300 817 201 820 100 c 1
 940 100 l 1
377 500.5 m 0
 377 532.515625 402.984375 558.5 435 558.5 c 0
 467.015625 558.5 493 532.515625 493 500.5 c 0
 493 468.484375 467.015625 442.5 435 442.5 c 0
 402.984375 442.5 377 468.484375 377 500.5 c 0
EndSplineSet
EndChar
StartChar: arDal.isol
Encoding: 65553 -1 76
Width: 870
VWidth: 0
Flags: W
HStem: 0 100<85 745> 200 100<225 715.198> 442.5 116<390.25 479.75>
VStem: 377 116<455.75 545.25> 745 100<100 174.562>
LayerCount: 2
Fore
SplineSet
377 500.5 m 0
 377 532.515625 402.984375 558.5 435 558.5 c 0
 467.015625 558.5 493 532.515625 493 500.5 c 0
 493 468.484375 467.015625 442.5 435 442.5 c 0
 402.984375 442.5 377 468.484375 377 500.5 c 0
277 413 m 1
 225 300 l 1
 655 300 l 2
 862 300 845 143 845 23 c 0
 845 -2 805 0 805 0 c 2
 25 0 l 1
 85 100 l 1
 745 100 l 1
 746 156 730 200 655 200 c 2
 135 200 l 1
 267 420 l 1
 277 413 l 1
EndSplineSet
EndChar
StartChar: arFeh.fina
Encoding: 65576 -1 99
Width: 925
VWidth: 0
Flags: MW
LayerCount: 2
Fore
SplineSet
625 300 m 0
 625 272 648 249 676 249 c 0
 704 249 728 272 728 300 c 0
 728 328 704 351 676 351 c 0
 648 351 625 328 625 300 c 0
528 300 m 0
 528 383 594 450 676 450 c 0
 758 450 825 383 825 300 c 0
 825 217 758 150 676 150 c 0
 594 150 528 217 528 300 c 0
825 300 m 25
 825 100 l 17
 945 100 l 1
 945 0 l 9
 25 0 l 1
 85 100 l 1
 725 100 l 9
 725 228 l 25
 825 300 l 25
EndSplineSet
Refer: 154 -1 N 1 0 0 1 675 600 2
Refer: 153 -1 N 1 0 0 1 675 600 2
EndChar
StartChar: arFeh.init
Encoding: 65578 -1 101
Width: 425
VWidth: 0
Flags: W
HStem: 0 100<-20 300> 150 99<209.923 292.447> 351 99<209.923 292.447> 542 116<206.255 295.745>
VStem: 103 97<258.668 341.332> 193 116<555.255 644.745> 300 100<100 100 284.896 342.022>
LayerCount: 2
Fore
SplineSet
193 600 m 0xf4
 193 632 219 658 251 658 c 0
 283 658 309 632 309 600 c 0
 309 568 283 542 251 542 c 0
 219 542 193 568 193 600 c 0xf4
200 300 m 0xf8
 200 272 223 249 251 249 c 0
 279 249 303 272 303 300 c 0
 303 328 279 351 251 351 c 0
 223 351 200 328 200 300 c 0xf8
103 300 m 0
 103 383 169 450 251 450 c 0
 333 450 400 383 400 300 c 0xfa
 400 217 333 150 251 150 c 0
 169 150 103 217 103 300 c 0
400 300 m 25
 400 23 l 18
 400 -2 360 0 360 0 c 2
 -20 0 l 1
 -20 100 l 1
 300 100 l 9
 300 228 l 25
 400 300 l 25
EndSplineSet
EndChar
StartChar: arFeh.isol
Encoding: 65575 -1 98
Width: 850
VWidth: 0
Flags: W
HStem: 0 100<85 725> 150 99<634.923 717.447> 351 99<634.923 717.447> 542 116<631.255 720.745>
VStem: 528 97<258.668 341.332> 618 116<555.255 644.745> 725 100<100 100 284.896 342.022>
LayerCount: 2
Fore
SplineSet
618 600 m 0xf4
 618 632 644 658 676 658 c 0
 708 658 734 632 734 600 c 0
 734 568 708 542 676 542 c 0
 644 542 618 568 618 600 c 0xf4
625 300 m 0xf8
 625 272 648 249 676 249 c 0
 704 249 728 272 728 300 c 0
 728 328 704 351 676 351 c 0
 648 351 625 328 625 300 c 0xf8
528 300 m 0
 528 383 594 450 676 450 c 0
 758 450 825 383 825 300 c 0xfa
 825 217 758 150 676 150 c 0
 594 150 528 217 528 300 c 0
825 300 m 25
 825 23 l 18
 825 -2 785 0 785 0 c 2
 25 0 l 1
 85 100 l 1
 725 100 l 9
 725 228 l 25
 825 300 l 25
EndSplineSet
EndChar
StartChar: arFeh.medi
Encoding: 65577 -1 100
Width: 500
VWidth: 0
Flags: MW
LayerCount: 2
Fore
SplineSet
193 600 m 0
 193 632 219 658 251 658 c 0
 283 658 309 632 309 600 c 0
 309 568 283 542 251 542 c 0
 219 542 193 568 193 600 c 0
200 300 m 0
 200 272 223 249 251 249 c 0
 279 249 303 272 303 300 c 0
 303 328 279 351 251 351 c 0
 223 351 200 328 200 300 c 0
103 300 m 0
 103 383 169 450 251 450 c 0
 333 450 400 383 400 300 c 0
 400 217 333 150 251 150 c 0
 169 150 103 217 103 300 c 0
400 300 m 25
 400 100 l 17
 520 100 l 1
 520 0 l 9
 -20 0 l 1
 -20 100 l 1
 300 100 l 9
 300 228 l 25
 400 300 l 25
EndSplineSet
EndChar
StartChar: arHah.fina
Encoding: 65546 -1 69
Width: 430
VWidth: 0
Flags: MW
LayerCount: 2
Fore
SplineSet
135 500.5 m 0
 135 532.515625 160.984375 558.5 193 558.5 c 0
 225.015625 558.5 251 532.515625 251 500.5 c 0
 251 468.484375 225.015625 442.5 193 442.5 c 0
 160.984375 442.5 135 468.484375 135 500.5 c 0
122 259 m 1
 77 259 l 1
 27 359 l 1
 194 359 l 1
 463 -123 l 1
 380 -200 l 1
 294 -47 208 106 122 259 c 1
182 100 m 2
 450 100 l 1
 450 0 l 1
 182 0 l 2
 156 0 111 -21 111 -72 c 0
 111 -180 232 -187 296 -167 c 1
 239 -207 136 -217 75 -170 c 0
 45 -147 25 -110 25 -57 c 0
 25 13 54 100 182 100 c 2
EndSplineSet
EndChar
StartChar: arHah.fina1
Encoding: 65547 -1 70
Width: 430
VWidth: 0
Flags: MW
LayerCount: 2
Fore
SplineSet
135 500.5 m 0
 135 532.515625 160.984375 558.5 193 558.5 c 0
 225.015625 558.5 251 532.515625 251 500.5 c 0
 251 468.484375 225.015625 442.5 193 442.5 c 0
 160.984375 442.5 135 468.484375 135 500.5 c 0
219.576527828 313.171425973 m 1
 463 -123 l 1
 380 -200 l 1
 135.604172621 234.797227779 l 1
 219.576527828 313.171425973 l 1
182 100 m 2
 450 100 l 1
 450 0 l 1
 182 0 l 2
 156 0 111 -21 111 -72 c 0
 111 -180 232 -187 296 -167 c 1
 239 -207 136 -217 75 -170 c 0
 45 -147 25 -110 25 -57 c 0
 25 13 54 100 182 100 c 2
EndSplineSet
EndChar
StartChar: arHah.init
Encoding: 65550 -1 73
Width: 685
VWidth: 0
Flags: W
HStem: -213.5 116<196.25 285.75> 0 100<-20 173 326.098 600> 392.5 116<128.25 217.75>
VStem: 115 116<405.75 495.25> 183 116<-200.25 -110.75>
LayerCount: 2
Fore
SplineSet
183 -155.5 m 0xe8
 183 -123.484375 208.984375 -97.5 241 -97.5 c 0
 273.015625 -97.5 299 -123.484375 299 -155.5 c 0
 299 -187.515625 273.015625 -213.5 241 -213.5 c 0
 208.984375 -213.5 183 -187.515625 183 -155.5 c 0xe8
115 450.5 m 0xf0
 115 482.515625 140.984375 508.5 173 508.5 c 0
 205.015625 508.5 231 482.515625 231 450.5 c 0
 231 418.484375 205.015625 392.5 173 392.5 c 0
 140.984375 392.5 115 418.484375 115 450.5 c 0xf0
173 100 m 1
 145 116 111 157 95 183 c 1
 151 290 l 1
 221 179 320 100 416 100 c 2
 660 100 l 1
 600 0 l 1
 -20 0 l 1
 -20 100 l 1
 173 100 l 1
EndSplineSet
EndChar
StartChar: arHah.isol
Encoding: 65545 -1 68
Width: 515
VWidth: 0
Flags: MW
LayerCount: 2
Fore
SplineSet
95 500.5 m 0
 95 532.515625 120.984375 558.5 153 558.5 c 0
 185.015625 558.5 211 532.515625 211 500.5 c 0
 211 468.484375 185.015625 442.5 153 442.5 c 0
 120.984375 442.5 95 468.484375 95 500.5 c 0
25 -60 m 0
 25 23 74 59 118 85 c 1
 88 105 45 161 25 193 c 9
 81 300 l 17
 151 189 243 100 311 100 c 2
 490 100 l 1
 430 0 l 1
 198 0 l 2
 172 0 126 -31 126 -72 c 0
 126 -180 307 -169 371 -147 c 1
 325 -202 208 -223 132 -200 c 0
 75 -182 25 -131 25 -60 c 0
EndSplineSet
EndChar
StartChar: arHah.medi1
Encoding: 65549 -1 72
Width: 378
VWidth: 0
Flags: MW
LayerCount: 2
Fore
SplineSet
-20 100 m 25
 398 100 l 1
 398 0 l 1
 -20 0 l 25
 -20 100 l 25
167.576171875 313.171875 m 1
 411 -123 l 1
 328 -200 l 1
 83.6044921875 234.796875 l 1
 167.576171875 313.171875 l 1
EndSplineSet
Refer: 158 -1 N 1 0 0 1 140 -150 2
Refer: 153 -1 N 1 0 0 1 140 500 2
EndChar
StartChar: arHamza.isol
Encoding: 65629 -1 153
Width: 520
VWidth: 0
Flags: MW
LayerCount: 2
Fore
SplineSet
381 100 m 17
 348 100 l 2
 315 100 265 112 265 166 c 3
 265 214 302 237 334 237 c 3
 371 237 399 220 409 214 c 1
 400 246 371 294 289 294 c 3
 212 294 156 219 158 116 c 2
 158 46 l 1
 382 46 l 9
 381 100 l 17
435 0 m 1
 495 100 l 1
 85 100 l 1
 25 0 l 1
 435 0 l 1
EndSplineSet
EndChar
StartChar: arHamza.mark
Encoding: 65630 -1 152
Width: 0
VWidth: 0
Flags: MW
LayerCount: 2
Fore
SplineSet
91 75 m 17
 66 75 l 2
 41 75 4 94 4 134 c 3
 4 161 12 183 45 192 c 0
 64 197 87 187 95 183 c 1
 82 214 40 223 22 223 c 0
 -30 223 -58 200 -70 154 c 0
 -75 134 -77 112 -76 87 c 2
 -76 34 l 1
 92 34 l 9
 91 75 l 17
131 -0 m 1
 176 75 l 1
 -131 75 l 1
 -176 -0 l 1
 131 -0 l 1
EndSplineSet
EndChar
StartChar: arHamzaAbove.mark
Encoding: 65630 -1 152
Width: 0
VWidth: 0
GlyphClass: 4
Flags: MW
LayerCount: 3
Fore
SplineSet
88 50 m 17
 62 50 l 2
 37 50 0 49 0 89 c 3
 0 96 -1 128 32 137 c 0
 51 142 84 132 92 128 c 1
 79 159 47 168 29 168 c 0
 -23 168 -45 139 -56 99 c 0
 -61 79 -62 67 -62 42 c 2
 -62 9 l 1
 89 9 l 9
 88 50 l 17
105 0 m 1
 135 50 l 1
 -105 50 l 1
 -135 0 l 1
 105 0 l 1
EndSplineSet
Layer: 2
SplineSet
88 50 m 17
 62 50 l 2
 37 50 0 49 0 89 c 3
 0 96 -1 128 32 137 c 0
 51 142 84 132 92 128 c 1
 79 159 47 168 29 168 c 0
 -23 168 -45 139 -56 99 c 0
 -61 79 -62 67 -62 42 c 2
 -62 9 l 1
 89 9 l 9
 88 50 l 17
105 0 m 1
 135 50 l 1
 -105 50 l 1
 -135 0 l 1
 105 0 l 1
EndSplineSet
EndChar
StartChar: arHeh.fina
Encoding: 65602 -1 125
Width: 415
VWidth: 0
Flags: W
HStem: 0 100<132.414 186.625 322 435> 87 13<308 322> 200 100<132.414 192.788> 392 116<58.7498 148.25> 565 116<58.7498 148.25>
VStem: 25 99<108.659 191.341> 45.5 116<405.25 494.75 578.25 667.75> 222 100<107.149 171.845 363.418 447 515 778> 308 14<87 150>
LayerCount: 2
Fore
SplineSet
322 150 m 1x79
 322 87 l 1
 308 87 l 1
 308 150 l 1x7880
 322 150 l 1x79
435 100 m 1xb8
 435 0 l 9
 173 0 l 1xb8
 238 100 l 1x78
 435 100 l 1xb8
103.5 508 m 0
 71.484375 508 45.5 482.015625 45.5 450 c 0
 45.5 417.984375 71.484375 392 103.5 392 c 0
 135.515625 392 161.5 417.984375 161.5 450 c 0x3a
 161.5 482.015625 135.515625 508 103.5 508 c 0
103.5 681 m 0
 71.484375 681 45.5 655.015625 45.5 623 c 0
 45.5 590.984375 71.484375 565 103.5 565 c 0
 135.515625 565 161.5 590.984375 161.5 623 c 0
 161.5 655.015625 135.515625 681 103.5 681 c 0
322 150 m 17x39
 173 300 l 1
 208 300 295 294 322 346 c 1x3880
 322 150 l 17x39
124 150 m 0xbc
 124 122 146 100 174 100 c 0
 202 100 224 122 224 150 c 0
 224 178 202 200 174 200 c 0
 146 200 124 178 124 150 c 0xbc
25 150 m 0
 25 233 91 300 173 300 c 0
 255 300 322 233 322 150 c 0xbd
 322 67 255 0 173 0 c 0
 91 0 25 67 25 150 c 0
222 467 m 1
 222 778 l 9x39
 322 800 l 17x3880
 322 515 l 1
 222 467 l 1
222 320 m 1
 222 447 l 1x39
 322 495 l 1x3880
 322 374 l 1
 304 340 260 322 222 320 c 1
EndSplineSet
EndChar
StartChar: arHeh.fina1
Encoding: 65603 -1 126
Width: 415
VWidth: 0
Flags: W
HStem: 0 100<132.414 186.625 322 435> 87 13<308 322> 200 100<132.414 192.788> 442.5 116<52.2498 141.75 225.25 314.75>
VStem: 25 99<108.659 191.341> 39 116<455.75 545.25> 212 116<455.75 545.25> 224 98<108.438 171.845> 308 14<87 150>
LayerCount: 2
Fore
SplineSet
322 150 m 1x71
 322 87 l 1
 308 87 l 1
 308 150 l 1x7080
 322 150 l 1x71
435 100 m 1xb0
 435 0 l 9
 173 0 l 1xb0
 238 100 l 1x70
 435 100 l 1xb0
212 500.5 m 0x32
 212 532.515625 237.984375 558.5 270 558.5 c 0
 302.015625 558.5 328 532.515625 328 500.5 c 0
 328 468.484375 302.015625 442.5 270 442.5 c 0
 237.984375 442.5 212 468.484375 212 500.5 c 0x32
39 500.5 m 0x34
 39 532.515625 64.984375 558.5 97 558.5 c 0
 129.015625 558.5 155 532.515625 155 500.5 c 0
 155 468.484375 129.015625 442.5 97 442.5 c 0
 64.984375 442.5 39 468.484375 39 500.5 c 0x34
322 150 m 17x31
 173 300 l 1
 208 300 295 294 322 346 c 1x3080
 322 150 l 17x31
124 150 m 0xb9
 124 122 146 100 174 100 c 0
 202 100 224 122 224 150 c 0
 224 178 202 200 174 200 c 0
 146 200 124 178 124 150 c 0xb9
25 150 m 0
 25 233 91 300 173 300 c 0
 255 300 322 233 322 150 c 0
 322 67 255 0 173 0 c 0
 91 0 25 67 25 150 c 0
EndSplineSet
EndChar
StartChar: arHeh.init
Encoding: 65608 -1 131
Width: 419
VWidth: 0
Flags: W
HStem: -200 100<203.914 286.125> 0 100<-20 327> 200 100<203.914 264.788>
VStem: 97 98<-91.3412 -8.4375 108.438 191.341> 295 99<-91.3412 -22 122 171.845> 350 44<-50 150>
CounterMasks: 1 e0
LayerCount: 2
Fore
SplineSet
111 150 m 1xf0
 111 -50 l 1
 97 -50 l 1
 97 150 l 1
 111 150 l 1xf0
195 -50 m 0
 195 -78 217 -100 245 -100 c 0
 273 -100 295 -78 295 -50 c 0xf8
 295 -22 273 0 245 0 c 0
 217 0 195 -22 195 -50 c 0
97 -50 m 0
 97 33 163 100 245 100 c 0
 327 100 394 33 394 -50 c 0
 394 -133 327 -200 245 -200 c 0
 163 -200 97 -133 97 -50 c 0
-20 100 m 1
 180 100 l 1
 245 0 l 1
 -20 0 l 17
 -20 100 l 1
394 150 m 1
 394 -50 l 1xf8
 350 -50 l 1
 350 150 l 1xf4
 394 150 l 1
394 150 m 17
 245 300 l 1
 280 300 367 294 394 346 c 1xf4
 394 150 l 17
195 150 m 0
 195 122 217 100 245 100 c 0
 273 100 295 122 295 150 c 0xf8
 295 178 273 200 245 200 c 0
 217 200 195 178 195 150 c 0
97 150 m 0
 97 233 163 300 245 300 c 0
 327 300 394 233 394 150 c 0
 394 67 327 0 245 0 c 0
 163 0 97 67 97 150 c 0
EndSplineSet
EndChar
StartChar: arHeh.init3
Encoding: 65611 -1 134
Width: 419
VWidth: 0
Flags: MW
LayerCount: 2
Fore
SplineSet
394 554 m 25
 394 23 l 18
 394 -2 354 0 354 0 c 2
 174 0 l 1
 174 100 l 1
 294 100 l 9
 294 532 l 25
 394 554 l 25
131 304 m 1
 131 84 l 1
 97 84 l 1
 97 304 l 1
 131 304 l 1
194 149 m 0
 194 121 216 99 244 99 c 0
 272 99 294 121 294 149 c 0
 294 177 272 199 244 199 c 0
 216 199 194 177 194 149 c 0
373 232 m 1
 387 209 394 178 394 150 c 0
 394 67 327 0 245 0 c 0
 163 0 97 67 97 150 c 0
 97 178 105 209 118 232 c 1
 373 232 l 1
-20 100 m 1
 180 100 l 1
 245 0 l 1
 -20 0 l 17
 -20 100 l 1
394 304 m 17
 245 454 l 1
 280 454 367 448 394 500 c 1
 394 304 l 17
194 304 m 0
 194 276 216 254 244 254 c 0
 272 254 294 276 294 304 c 0
 294 332 272 354 244 354 c 0
 216 354 194 332 194 304 c 0
118 227 m 1
 105 250 97 276 97 304 c 0
 97 387 163 454 245 454 c 0
 327 454 394 387 394 304 c 0
 394 276 386 250 372 227 c 1
 118 227 l 1
EndSplineSet
EndChar
StartChar: arHeh.isol
Encoding: 65600 -1 123
Width: 347
VWidth: 0
Flags: MW
LayerCount: 2
Fore
SplineSet
103.5 508 m 0
 71.484375 508 45.5 482.015625 45.5 450 c 0
 45.5 417.984375 71.484375 392 103.5 392 c 0
 135.515625 392 161.5 417.984375 161.5 450 c 0
 161.5 482.015625 135.515625 508 103.5 508 c 0
103.5 681 m 0
 71.484375 681 45.5 655.015625 45.5 623 c 0
 45.5 590.984375 71.484375 565 103.5 565 c 0
 135.515625 565 161.5 590.984375 161.5 623 c 0
 161.5 655.015625 135.515625 681 103.5 681 c 0
322 150 m 17
 173 300 l 1
 208 300 295 294 322 346 c 1
 322 150 l 17
124 150 m 0
 124 122 146 100 174 100 c 0
 202 100 224 122 224 150 c 0
 224 178 202 200 174 200 c 0
 146 200 124 178 124 150 c 0
25 150 m 0
 25 233 91 300 173 300 c 0
 255 300 322 233 322 150 c 0
 322 67 255 0 173 0 c 0
 91 0 25 67 25 150 c 0
222 467 m 1
 222 778 l 9
 322 800 l 17
 322 515 l 1
 222 467 l 1
222 320 m 1
 222 447 l 1
 322 495 l 1
 322 374 l 1
 304 340 260 322 222 320 c 1
EndSplineSet
EndChar
StartChar: arHeh.isol1
Encoding: 65601 -1 124
Width: 347
VWidth: 0
Flags: MW
LayerCount: 2
Fore
SplineSet
322 150 m 17
 173 300 l 1
 208 300 295 294 322 346 c 1
 322 150 l 17
124 150 m 0
 124 122 146 100 174 100 c 0
 202 100 224 122 224 150 c 0
 224 178 202 200 174 200 c 0
 146 200 124 178 124 150 c 0
25 150 m 0
 25 233 91 300 173 300 c 0
 255 300 322 233 322 150 c 0
 322 67 255 0 173 0 c 0
 91 0 25 67 25 150 c 0
EndSplineSet
Refer: 154 -1 N 1 0 0 1 180 500 2
EndChar
StartChar: arHeh.medi1
Encoding: 65605 -1 128
Width: 487
VWidth: 0
Flags: W
HStem: -200 100<203.914 286.125> 0 100<-20 507> 200 100<203.914 266.845>
VStem: 97 98<-91.3412 -8.4375 108.438 191.341> 295 99<-91.3412 -43.555 100 378>
CounterMasks: 1 e0
LayerCount: 2
Fore
SplineSet
97 150 m 0
 97 233 163 300 245 300 c 0
 327 300 394 233 394 150 c 0
 394 67 327 0 245 0 c 0
 163 0 97 67 97 150 c 0
195 150 m 0
 195 122 217 100 245 100 c 0
 273 100 295 122 295 150 c 0
 295 178 273 200 245 200 c 0
 217 200 195 178 195 150 c 0
394 150 m 17
 245 300 l 1
 280 300 367 294 394 346 c 1
 394 150 l 17
507 100 m 1
 507 0 l 9
 245 0 l 1
 310 100 l 1
 507 100 l 1
-20 100 m 1
 180 100 l 1
 245 0 l 1
 -20 0 l 17
 -20 100 l 1
97 -50 m 0
 97 33 163 100 245 100 c 0
 327 100 394 33 394 -50 c 0
 394 -133 327 -200 245 -200 c 0
 163 -200 97 -133 97 -50 c 0
195 -50 m 0
 195 -78 217 -100 245 -100 c 0
 273 -100 295 -78 295 -50 c 0
 295 -22 273 0 245 0 c 0
 217 0 195 -22 195 -50 c 0
111 150 m 1
 111 -50 l 1
 97 -50 l 1
 97 150 l 1
 111 150 l 1
295 -18 m 1
 295 378 l 1
 394 400 l 1
 394 -50 l 1
 295 -18 l 1
EndSplineSet
EndChar
StartChar: arHeh.medi2
Encoding: 65606 -1 129
Width: 487
VWidth: 0
Flags: W
HStem: 0 100<-20 97 231.175 258.825 394 507> 64 36<360 394> 84 16<97 131> 199 55<217 273> 227 5<114.478 375.778> 354 100<203.914 264.788>
VStem: 97 98<121 177 276 345.341> 295 99<121 177 276 325.845> 360 34<64 227 232 304>
LayerCount: 2
Fore
SplineSet
131 304 m 1x26
 131 84 l 1
 97 84 l 1
 97 304 l 1
 131 304 l 1x26
195 149 m 0
 195 121 217 99 245 99 c 0
 273 99 295 121 295 149 c 0
 295 177 273 199 245 199 c 0x17
 217 199 195 177 195 149 c 0
373 232 m 1x8f
 387 209 394 178 394 150 c 0
 394 67 327 0 245 0 c 0
 163 0 97 67 97 150 c 0
 97 178 105 209 118 232 c 1
 373 232 l 1x8f
-20 100 m 1
 180 100 l 1x26
 245 0 l 1
 -20 0 l 17
 -20 100 l 1
394 304 m 1x47
 394 64 l 1
 360 64 l 1
 360 304 l 1x4680
 394 304 l 1x47
507 100 m 1x86
 507 0 l 9
 245 0 l 1x86
 310 100 l 1x26
 507 100 l 1x86
394 304 m 17x07
 245 454 l 1
 280 454 367 448 394 500 c 1x0680
 394 304 l 17x07
195 304 m 0
 195 276 217 254 245 254 c 0
 273 254 295 276 295 304 c 0x17
 295 332 273 354 245 354 c 0
 217 354 195 332 195 304 c 0
118 227 m 1x0f
 105 250 97 276 97 304 c 0
 97 387 163 454 245 454 c 0
 327 454 394 387 394 304 c 0
 394 276 386 250 372 227 c 1
 118 227 l 1x0f
EndSplineSet
EndChar
StartChar: arKaf.fina
Encoding: 65582 -1 105
Width: 965
VWidth: 0
Flags: W
HStem: 0 100<85 765 865 985> 200 100<110 741.573>
VStem: 85 100<300 778> 110 75<200 300> 765 100<100 173.859>
LayerCount: 2
Fore
SplineSet
110 300 m 1xd8
 675 300 l 2
 839 300 862 201 865 100 c 1
 985 100 l 1
 985 0 l 25
 25 0 l 1
 85 100 l 1xe8
 765 100 l 1
 766 156 750 200 675 200 c 2
 110 200 l 1
 110 300 l 1xd8
85 200 m 25
 85 778 l 1xe8
 185 800 l 1
 185 200 l 25xd8
 85 200 l 25
EndSplineSet
EndChar
StartChar: arKaf.fina2
Encoding: 65643 -1 166
Width: 1085
VWidth: 0
Flags: MW
LayerCount: 2
Fore
SplineSet
1105 100 m 1
 1105 0 l 1
 909 0 l 1
 909 100 l 1
 1105 100 l 1
586 431 m 1
 577 446 567 443 560 436 c 2
 331 211 l 9
 254 289 l 17
 586 616 l 1
 586 431 l 1
265 300 m 1
 795 300 l 2
 1002 300 985 143 985 23 c 0
 985 -2 945 0 945 0 c 2
 25 0 l 1
 85 100 l 1
 885 100 l 1
 886 156 870 200 795 200 c 2
 165 200 l 1
 265 300 l 1
EndSplineSet
Refer: 169 -1 N 1 0 0 1 374 467 2
EndChar
StartChar: arKaf.init
Encoding: 65584 -1 107
Width: 940
VWidth: 0
Flags: W
HStem: 0 100<-20 815> 200 100<160 785.198>
VStem: 115 100<300 778> 160 55<200 300> 815 100<100 174.562>
LayerCount: 2
Fore
SplineSet
115 200 m 25xe8
 115 778 l 1xe8
 215 800 l 1
 215 200 l 25xd8
 115 200 l 25xe8
160 300 m 1xd8
 725 300 l 2
 932 300 915 143 915 23 c 0
 915 -2 875 0 875 0 c 2
 -20 0 l 1
 -20 100 l 1
 815 100 l 1
 816 156 800 200 725 200 c 2
 160 200 l 1
 160 300 l 1xd8
EndSplineSet
EndChar
StartChar: arKaf.isol
Encoding: 65581 -1 104
Width: 1010
VWidth: 0
Flags: MW
LayerCount: 2
Fore
SplineSet
586.032226562 431.2265625 m 1
 577.521484375 445.779296875 566.633789062 443.103515625 559.5 436.076779026 c 2
 331 211 l 9
 254 289 l 17
 585.967522859 616.481475253 l 1
 586.032226562 431.2265625 l 1
265 300 m 1
 795 300 l 2
 1002 300 985 143 985 23 c 0
 985 -2 945 0 945 0 c 2
 25 0 l 1
 85 100 l 1
 885 100 l 1
 886 156 870 200 795 200 c 2
 165 200 l 1
 265 300 l 1
EndSplineSet
Refer: 169 -1 N 1 0 0 1 374 467 2
EndChar
StartChar: arKaf.medi
Encoding: 65583 -1 106
Width: 985
VWidth: 0
Flags: W
HStem: 0 100<-20 765 865 1005> 200 100<298.361 741.573>
VStem: 765 100<100 173.859>
DStem2: 94 200 298.361 300 0.569047 0.822305<198.522 491.364>
LayerCount: 2
Fore
SplineSet
345.013973394 560.636713471 m 2
 368.5234375 594.575195312 357.342427899 655.941022547 323 685 c 0
 295.689572304 708.408938025 257.157226562 715.213867188 217 709.9375 c 0
 195.400390625 707.099609375 166 687.5 149 674 c 1
 105 823 l 1
 127 815.5 156.814084292 809.587218921 184 814.309358382 c 0
 256.001585894 826.815890577 340.282371568 819.539886739 394 768 c 0
 474.938052858 690.962576195 488.359955849 577.789748235 425 483 c 2
 298.36121673 300 l 1
 675 300 l 2
 839 300 862 201 865 100 c 1
 1005 100 l 1
 1005 0 l 1
 -20 0 l 1
 -20 100 l 1
 765 100 l 1
 766 156 750 200 675 200 c 2
 94 200 l 1
 178.847870535 319.0679922 345.013973394 560.636713471 345.013973394 560.636713471 c 2
EndSplineSet
EndChar
StartChar: arKaf.medi2
Encoding: 65644 -1 167
Width: 985
VWidth: 0
Flags: MW
LayerCount: 3
Fore
SplineSet
1005 100 m 1
 1005 0 l 1
 809 0 l 1
 809 100 l 1
 1005 100 l 1
486 431 m 1
 477 446 467 443 460 436 c 2
 231 211 l 9
 154 289 l 17
 486 616 l 1
 486 431 l 1
165 300 m 1
 695 300 l 2
 902 300 885 143 885 23 c 0
 885 -2 845 0 845 0 c 2
 -20 0 l 1
 -20 100 l 1
 785 100 l 1
 786 156 770 200 695 200 c 2
 65 200 l 1
 165 300 l 1
EndSplineSet
Layer: 2
Refer: 169 -1 N 1 0 0 1 274 467 2
EndChar
StartChar: arLam.fina
Encoding: 65586 -1 111
Width: 545
VWidth: 0
Flags: W
HStem: -200 57<121.266 292.161> 0 100<395 565>
VStem: 25 30<-69.7853 59.8615> 345 100<-83.4023 40 100 778> 395 50<0 100>
LayerCount: 2
Fore
SplineSet
565 100 m 1xe8
 565 0 l 9
 395 0 l 1
 395 100 l 1
 565 100 l 1xe8
445 -0 m 2xf0
 445 -113.004882812 367 -200 216 -200 c 0
 53 -200 25 -62 25 0 c 0
 25 88 88 167 151 207 c 1
 154 182 150 160 131 135 c 1
 152 125 166 100 160 77 c 1
 141 88 129 92 111 90 c 0
 73 86 55 39 55 0 c 0
 55 -76 92 -143 216 -143 c 0
 318 -143 345 -71 345 40 c 2
 345 778 l 1xf0
 445 800 l 1xe8
 445 -0 l 2xf0
EndSplineSet
EndChar
StartChar: arLam.init
Encoding: 65588 -1 110
Width: 225
VWidth: 0
Flags: MW
LayerCount: 2
Fore
SplineSet
200 800 m 25
 200 23 l 18
 200 -2 160 0 160 0 c 2
 -20 0 l 1
 -20 100 l 1
 100 100 l 9
 100 778 l 25
 200 800 l 25
EndSplineSet
EndChar
StartChar: arLam.init1Alef
Encoding: 65617 -1 142
Width: 350
VWidth: 0
Flags: W
HStem: 0 100<133.836 216.125> 200 100<93 257>
VStem: 25 100<108.659 204.96 308.438 350> 225 99<108.659 204.96 300 778>
LayerCount: 2
Back
SplineSet
25 350 m 13
 25 778 l 29
 125 800 l 29
 125 300 l 21
 25 350 l 13
EndSplineSet
Fore
SplineSet
325 350 m 0
 325 267 257 200 175 200 c 0
 93 200 25 267 25 350 c 0
 125 350 l 0
 125 322 147 300 175 300 c 0
 203 300 225 322 225 350 c 0
 325 350 l 0
125 150 m 0
 125 122 147 100 175 100 c 0
 203 100 225 122 225 150 c 0
 225 178 203 200 175 200 c 0
 147 200 125 178 125 150 c 0
25 150 m 0
 25 233 93 300 175 300 c 0
 257 300 324 233 324 150 c 0
 324 67 257 0 175 0 c 0
 93 0 25 67 25 150 c 0
225 300 m 9
 225 800 l 25
 325 778 l 25
 325 350 l 17
 225 300 l 9
EndSplineSet
EndChar
StartChar: arLam.isol
Encoding: 65585 -1 108
Width: 470
VWidth: 0
Flags: W
HStem: -200 57<121.266 292.161>
VStem: 25 30<-69.7853 59.8615> 345 100<-83.4023 778>
LayerCount: 2
Fore
SplineSet
445 -0 m 2
 445 -113.004882812 367 -200 216 -200 c 0
 53 -200 25 -62 25 0 c 0
 25 88 88 167 151 207 c 1
 154 182 150 160 131 135 c 1
 152 125 166 100 160 77 c 1
 141 88 129 92 111 90 c 0
 73 86 55 39 55 0 c 0
 55 -76 92 -143 216 -143 c 0
 318 -143 345 -71 345 40 c 2
 345 778 l 1
 445 800 l 1
 445 -0 l 2
EndSplineSet
EndChar
StartChar: arLam.medi
Encoding: 65587 -1 109
Width: 300
VWidth: 0
Flags: W
HStem: 0 100<-20 100 200 320>
VStem: 100 100<100 778>
LayerCount: 2
Fore
SplineSet
200 800 m 25
 200 100 l 17
 320 100 l 1
 320 0 l 9
 -20 0 l 1
 -20 100 l 1
 100 100 l 9
 100 778 l 25
 200 800 l 25
EndSplineSet
EndChar
StartChar: arLam.mediAlef
Encoding: 65619 -1 140
Width: 425
VWidth: 0
Flags: MW
LayerCount: 3
Back
SplineSet
25 150 m 13
 25 778 l 29
 125 800 l 29
 125 100 l 21
 25 150 l 13
EndSplineSet
Fore
SplineSet
325 150 m 0
 325 67 257 0 175 0 c 0
 93 0 25 67 25 150 c 0
 125 150 l 0
 125 122 147 100 175 100 c 0
 203 100 225 122 225 150 c 0
 325 150 l 0
125 -50 m 0
 125 -78 147 -100 175 -100 c 0
 203 -100 225 -78 225 -50 c 0
 225 -22 203 0 175 0 c 0
 147 0 125 -22 125 -50 c 0
25 -50 m 0
 25 33 93 100 175 100 c 0
 257 100 324 33 324 -50 c 0
 324 -133 257 -200 175 -200 c 0
 93 -200 25 -133 25 -50 c 0
225 100 m 9
 225 800 l 25
 325 778 l 25
 325 150 l 17
 225 100 l 9
445 100 m 1
 445 0 l 1
 175 0 l 1
 225 100 l 1
 445 100 l 1
EndSplineSet
EndChar
StartChar: arMadda.mark
Encoding: 65647 -1 170
Width: 0
VWidth: 0
Flags: MW
LayerCount: 2
Fore
SplineSet
-72 16 m 10
 -72 80 l 25
 -122 72 l 25
 -122 16 l 18
 -122 -12 -120 -34 -150 -38 c 1
 -136 -41 -72 -57 -72 16 c 10
65 0 m 25
 165 0 l 1
 127 66 l 1
 122 55 110 50 100 50 c 2
 65 50 l 1
 65 0 l 25
84 50 m 1
 -104 50 l 1
 -104 0 l 1
 84 0 l 25
 84 50 l 1
EndSplineSet
EndChar
StartChar: arMeem.fina
Encoding: 65592 -1 115
Width: 685
VWidth: 0
Flags: MW
LayerCount: 2
Fore
SplineSet
705 100 m 1
 705 0 l 9
 440 0 l 1
 505 100 l 1
 705 100 l 1
291 150 m 0
 291 218 336 275 397 294 c 0
 411 298 430 310 440 350 c 1
 451 310 471 298 485 293 c 0
 545 274 588 217 588 150 c 0
 588 67 522 0 440 0 c 0
 358 0 291 67 291 150 c 0
440 0 m 25
 25 0 l 1
 109 140 l 1
 122 113 153 100 177 100 c 2
 380 100 l 1
 440 0 l 25
390 150 m 0
 390 122 412 100 440 100 c 0
 468 100 490 122 490 150 c 0
 490 178 468 200 440 200 c 0
 412 200 390 178 390 150 c 0
EndSplineSet
EndChar
StartChar: arMeem.fina1
Encoding: 65593 -1 116
Width: 419
VWidth: 0
Flags: MW
LayerCount: 2
Fore
SplineSet
439 100 m 1
 439 0 l 9
 174 0 l 1
 239 100 l 1
 439 100 l 1
25 150 m 0
 25 218 70 275 131 294 c 0
 145 298 164 310 174 350 c 1
 185 310 205 298 219 293 c 0
 279 274 322 217 322 150 c 0
 322 67 256 0 174 0 c 0
 92 0 25 67 25 150 c 0
125 -100 m 18
 125 -190 5 -235 -50 -181 c 1
 -44 -181 25 -164 25 -100 c 10
 25 150 l 25
 125 92 l 25
 125 -100 l 18
124 150 m 0
 124 122 146 100 174 100 c 0
 202 100 224 122 224 150 c 0
 224 178 202 200 174 200 c 0
 146 200 124 178 124 150 c 0
EndSplineSet
EndChar
StartChar: arMeem.fina2
Encoding: 65594 -1 117
Width: 507
VWidth: 0
Flags: W
HStem: 0 100<240.155 275.825 327 527> 0 10<25 40.655>
VStem: 113 99<128.253 190.706> 312 98<108.659 190.459>
LayerCount: 2
Fore
SplineSet
527 100 m 1xb0
 527 0 l 9
 262 0 l 1
 327 100 l 1
 527 100 l 1xb0
113 150 m 0
 113 218 158 275 219 294 c 0
 233 298 252 310 262 350 c 1
 273 310 293 298 307 293 c 0
 367 274 410 217 410 150 c 0
 410 67 344 0 262 0 c 0
 180 0 113 67 113 150 c 0
212 150 m 0
 212 122 234 100 262 100 c 0
 290 100 312 122 312 150 c 0
 312 178 290 200 262 200 c 0
 234 200 212 178 212 150 c 0
262 0 m 9
 25 0 l 1
 25 10 l 1x70
 114 32 113 115 113 150 c 1
 262 0 l 9
EndSplineSet
EndChar
StartChar: arMeem.init
Encoding: 65597 -1 120
Width: 418
VWidth: 0
Flags: MW
LayerCount: 2
Fore
SplineSet
96 150 m 0
 96 233 163 300 245 300 c 0
 327 300 393 233 393 150 c 0
 393 67 327 0 245 0 c 0
 163 0 96 67 96 150 c 0
-20 100 m 1
 180 100 l 1
 245 0 l 1
 -20 0 l 17
 -20 100 l 1
195 150 m 0
 195 122 217 100 245 100 c 0
 273 100 295 122 295 150 c 0
 295 178 273 200 245 200 c 0
 217 200 195 178 195 150 c 0
EndSplineSet
EndChar
StartChar: arMeem.isol
Encoding: 65589 -1 112
Width: 613
VWidth: 0
Flags: MW
LayerCount: 2
Fore
SplineSet
440 0 m 25
 25 0 l 1
 109 140 l 1
 122 113 153 100 177 100 c 2
 380 100 l 1
 440 0 l 25
390 150 m 0
 390 122 412 100 440 100 c 0
 468 100 490 122 490 150 c 0
 490 178 468 200 440 200 c 0
 412 200 390 178 390 150 c 0
291 150 m 0
 291 229 353 295 430 300 c 1
 437 326 448 337 459 349 c 1
 547 294 588 226 588 150 c 0
 588 67 522 0 440 0 c 0
 358 0 291 67 291 150 c 0
EndSplineSet
EndChar
StartChar: arMeem.isol1
Encoding: 65590 -1 113
Width: 347
VWidth: 0
Flags: MW
LayerCount: 3
Fore
SplineSet
125 -100 m 18
 125 -190 5 -235 -50 -181 c 1
 -44 -181 25 -164 25 -100 c 10
 25 150 l 25
 125 92 l 25
 125 -100 l 18
124 150 m 0
 124 122 146 100 174 100 c 0
 202 100 224 122 224 150 c 0
 224 178 202 200 174 200 c 0
 146 200 124 178 124 150 c 0
25 150 m 0
 25 229 87 295 164 300 c 1
 171 326 182 337 193 349 c 1
 281 294 322 226 322 150 c 0
 322 67 256 0 174 0 c 0
 92 0 25 67 25 150 c 0
EndSplineSet
EndChar
StartChar: arMeem.isol2
Encoding: 65591 -1 114
Width: 435
VWidth: 0
Flags: MW
LayerCount: 2
Fore
SplineSet
113 150 m 0
 113 229 175 295 252 300 c 1
 259 326 270 337 281 349 c 1
 369 294 410 226 410 150 c 0
 410 67 344 0 262 0 c 0
 180 0 113 67 113 150 c 0
212 150 m 0
 212 122 234 100 262 100 c 0
 290 100 312 122 312 150 c 0
 312 178 290 200 262 200 c 0
 234 200 212 178 212 150 c 0
262 0 m 9
 25 0 l 1
 25 10 l 1
 114 32 113 115 113 150 c 1
 262 0 l 9
EndSplineSet
EndChar
StartChar: arMeem.medi
Encoding: 65595 -1 118
Width: 490
VWidth: 0
Flags: MW
LayerCount: 2
Fore
SplineSet
-20 100 m 1
 180 100 l 1
 245 0 l 1
 -20 0 l 17
 -20 100 l 1
510 100 m 1
 510 0 l 9
 245 0 l 1
 310 100 l 1
 510 100 l 1
96 150 m 0
 96 218 141 275 202 294 c 0
 216 298 235 310 245 350 c 1
 256 310 276 298 290 293 c 0
 350 274 393 217 393 150 c 0
 393 67 327 0 245 0 c 0
 163 0 96 67 96 150 c 0
195 150 m 0
 195 122 217 100 245 100 c 0
 273 100 295 122 295 150 c 0
 295 178 273 200 245 200 c 0
 217 200 195 178 195 150 c 0
EndSplineSet
EndChar
StartChar: arMeem.medi1
Encoding: 65596 -1 119
Width: 490
VWidth: 0
Flags: MW
LayerCount: 2
Fore
SplineSet
96 50 m 0
 96 129 158 195 235 200 c 1
 242 226 253 237 264 249 c 1
 352 194 393 126 393 50 c 0
 393 -33 327 -100 245 -100 c 0
 163 -100 96 -33 96 50 c 0
-20 100 m 1
 180 100 l 1
 180 0 l 1
 -20 0 l 17
 -20 100 l 1
510 100 m 1
 510 0 l 9
 310 0 l 1
 310 100 l 1
 510 100 l 1
195 50 m 0
 195 22 217 0 245 0 c 0
 273 0 295 22 295 50 c 0
 295 78 273 100 245 100 c 0
 217 100 195 78 195 50 c 0
EndSplineSet
EndChar
StartChar: arNoon.isol
Encoding: 65598 -1 121
Width: 460
VWidth: 0
Flags: MW
LayerCount: 2
Fore
SplineSet
435 5 m 0
 435 -108 354 -204 221 -204 c 0
 64 -204 25 -62 25 0 c 0
 25 88 88 167 151 207 c 1
 154 182 150 160 131 135 c 1
 152 125 166 100 160 77 c 1
 141 88 129 92 111 90 c 0
 73 86 55 39 55 0 c 0
 55 -69 102 -136 216 -136 c 0
 318 -136 355 -51 350 20 c 0
 346 77 305 134 285 158 c 1
 337 262 l 1
 387 200 435 122 435 5 c 0
EndSplineSet
Refer: 153 -1 N 1 0 0 1 230 400 2
EndChar
StartChar: arQaf.fina
Encoding: 65580 -1 103
Width: 600
VWidth: 0
Flags: W
HStem: -215 67<144.812 333.738> 0 100<300.875 390 490 620> 83 42<94.1875 119.5> 200 100<300.875 383.086> 444 116<212.255 301.745 385.255 474.745>
VStem: 25 30<-62.8222 61.679> 193 99<108.659 191.341> 199 116<457.255 546.745> 342 148<0 100> 372 116<457.255 546.745> 390 100<-68.4429 50 134.988 191.986>
LayerCount: 2
Fore
SplineSet
292 150 m 0xde80
 292 122 314 100 342 100 c 0
 370 100 392 122 392 150 c 0
 392 178 370 200 342 200 c 0
 314 200 292 178 292 150 c 0xde80
620 100 m 1
 620 0 l 1
 342 0 l 1
 342 100 l 1
 620 100 l 1
372 502 m 0x9c40
 372 534 398 560 430 560 c 0
 462 560 488 534 488 502 c 0
 488 470 462 444 430 444 c 0
 398 444 372 470 372 502 c 0x9c40
199 502 m 0x9d
 199 534 225 560 257 560 c 0
 289 560 315 534 315 502 c 0
 315 470 289 444 257 444 c 0
 225 444 199 470 199 502 c 0x9d
193 150 m 0xde80
 193 233 260 300 342 300 c 0xde80
 424 300 490 233 490 150 c 0xdc20
 490 67 424 0 342 0 c 0
 260 0 193 67 193 150 c 0xde80
490 50 m 2
 490 -3 477 -215 246 -215 c 0
 93 -215 25 -97 25 -5 c 0
 25 83 59 155 107 198 c 1
 110 173 113 150 94 125 c 1
 105 126 135 120 142 83 c 1
 114 87 97 85 83 76 c 0
 64 64 55 28 55 -5 c 0
 55 -81 122 -148 246 -148 c 0
 348 -148 390 -101 390 10 c 2
 390 78 l 1
 490 150 l 1xbc20
 490 50 l 2
EndSplineSet
EndChar
StartChar: arQaf.isol
Encoding: 65579 -1 102
Width: 515
VWidth: 0
Flags: MW
LayerCount: 3
Fore
SplineSet
292 150 m 0
 292 122 314 100 342 100 c 0
 370 100 392 122 392 150 c 0
 392 178 370 200 342 200 c 0
 314 200 292 178 292 150 c 0
193 150 m 0
 193 233 260 300 342 300 c 0
 424 300 490 233 490 150 c 0
 490 67 424 0 342 0 c 0
 260 0 193 67 193 150 c 0
490 50 m 2
 490 -3 477 -215 246 -215 c 0
 93 -215 25 -97 25 -5 c 0
 25 83 59 155 107 198 c 1
 110 173 113 150 94 125 c 1
 105 126 135 120 142 83 c 1
 114 87 97 85 83 76 c 0
 64 64 55 28 55 -5 c 0
 55 -81 122 -148 246 -148 c 0
 348 -148 390 -101 390 10 c 2
 390 78 l 1
 490 150 l 1
 490 50 l 2
EndSplineSet
Layer: 2
Refer: 154 -1 N 1 0 0 1 340 500 2
EndChar
StartChar: arReh.fina
Encoding: 65556 -1 79
Width: 300
VWidth: 0
Flags: MW
LayerCount: 2
Fore
SplineSet
320 100 m 1
 320 0 l 1
 174 0 l 1
 174 100 l 1
 320 100 l 1
92 500.5 m 0
 92 532.515625 117.984375 558.5 150 558.5 c 0
 182.015625 558.5 208 532.515625 208 500.5 c 0
 208 468.484375 182.015625 442.5 150 442.5 c 0
 117.984375 442.5 92 468.484375 92 500.5 c 0
200 -60 m 2
 200 -237 -19 -244 -85 -150 c 1
 68 -191 100 -127 100 -70 c 2
 100 278 l 9
 200 300 l 17
 200 -60 l 2
EndSplineSet
EndChar
StartChar: arSad.fina
Encoding: 65562 -1 85
Width: 1245
VWidth: 0
Flags: MW
LayerCount: 3
Fore
SplineSet
390 300 m 1
 955 300 l 2
 1119 300 1142 201 1145 100 c 1
 1265 100 l 1
 1265 0 l 25
 390 0 l 1
 390 100 l 1
 1045 100 l 1
 1046 156 1030 200 955 200 c 2
 390 200 l 1
 390 300 l 1
445 -0 m 2
 444 -113 367 -200 216 -200 c 0
 53 -200 25 -62 25 0 c 0
 25 88 88 167 151 207 c 1
 154 182 150 160 131 135 c 1
 152 125 166 100 160 77 c 1
 141 88 129 92 111 90 c 0
 73 86 55 39 55 0 c 0
 55 -76 92 -143 216 -143 c 0
 318 -143 345 -71 345 40 c 2
 345 378 l 1
 445 400 l 1
 445 -0 l 2
EndSplineSet
Layer: 2
Refer: 153 -1 N 1 0 0 1 695 550 2
EndChar
StartChar: arSad.init
Encoding: 65564 -1 87
Width: 940
VWidth: 0
Flags: W
HStem: 0 21G<-20 909.783> 50 50<115 215> 200 100<160 785.198> 494.5 116<420.25 509.75>
VStem: 115 100<50 200 300 378> 160 55<200 300> 407 116<507.75 597.25> 815 100<100 174.562>
LayerCount: 2
Fore
SplineSet
407 552.5 m 0xf3
 407 584.515625 432.984375 610.5 465 610.5 c 0
 497.015625 610.5 523 584.515625 523 552.5 c 0
 523 520.484375 497.015625 494.5 465 494.5 c 0
 432.984375 494.5 407 520.484375 407 552.5 c 0xf3
115 50 m 25xfb
 115 378 l 1xfb
 215 400 l 1xf7
 215 50 l 25
 115 50 l 25xfb
160 300 m 1xf7
 725 300 l 2
 932 300 915 143 915 23 c 0
 915 -2 875 0 875 0 c 2
 -20 0 l 1
 -20 100 l 1
 815 100 l 1
 816 156 800 200 725 200 c 2
 160 200 l 1
 160 300 l 1xf7
EndSplineSet
EndChar
StartChar: arSad.isol
Encoding: 65561 -1 84
Width: 1170
VWidth: 0
Flags: W
HStem: -200 57<121.266 292.118> 0 100<390 1045> 200 100<390 1015.2> 494.5 116<650.25 739.75>
VStem: 25 30<-69.7853 59.8615> 345 100<-83.4002 40 100 200 300 378> 390 55<0 100 200 300> 637 116<507.75 597.25> 1045 100<100 174.562>
LayerCount: 2
Fore
SplineSet
637 552.5 m 0xf980
 637 584.515625 662.984375 610.5 695 610.5 c 0
 727.015625 610.5 753 584.515625 753 552.5 c 0
 753 520.484375 727.015625 494.5 695 494.5 c 0
 662.984375 494.5 637 520.484375 637 552.5 c 0xf980
445 -0 m 2xfd80
 444 -113 367 -200 216 -200 c 0
 53 -200 25 -62 25 0 c 0
 25 88 88 167 151 207 c 1
 154 182 150 160 131 135 c 1
 152 125 166 100 160 77 c 1
 141 88 129 92 111 90 c 0
 73 86 55 39 55 0 c 0
 55 -76 92 -143 216 -143 c 0
 318 -143 345 -71 345 40 c 2
 345 378 l 1xfd80
 445 400 l 1xfb80
 445 -0 l 2xfd80
390 300 m 1xfb80
 955 300 l 2
 1162 300 1145 143 1145 23 c 0
 1145 -2 1105 0 1105 0 c 2
 390 0 l 1
 390 100 l 1
 1045 100 l 1
 1046 156 1030 200 955 200 c 2
 390 200 l 1
 390 300 l 1xfb80
EndSplineSet
EndChar
StartChar: arSad.mark
Encoding: 65642 -1 165
Width: 0
VWidth: 0
GlyphClass: 4
Flags: MW
LayerCount: 3
Fore
SplineSet
-64 16 m 10
 -64 160 l 25
 -114 152 l 25
 -114 16 l 18
 -114 -12 -112 -34 -142 -38 c 1
 -128 -41 -64 -57 -64 16 c 10
-96 140 m 1
 -96 90 l 1
 60 90 l 2
 90 90 92 72 92 50 c 1
 -96 50 l 1
 -96 0 l 1
 126 0 l 2
 126 0 142 0 142 10 c 0
 142 58 149 140 66 140 c 2
 -96 140 l 1
EndSplineSet
Layer: 2
SplineSet
-64 16 m 10
 -64 160 l 25
 -114 152 l 25
 -114 16 l 18
 -114 -12 -112 -34 -142 -38 c 1
 -128 -41 -64 -57 -64 16 c 10
-96 140 m 1
 -96 90 l 1
 60 90 l 2
 90 90 92 72 92 50 c 1
 -96 50 l 1
 -96 0 l 1
 126 0 l 2
 126 0 142 0 142 10 c 0
 142 58 149 140 66 140 c 2
 -96 140 l 1
EndSplineSet
EndChar
StartChar: arSad.medi
Encoding: 65563 -1 86
Width: 1015
VWidth: 0
Flags: W
HStem: 0 100<-20 115 215 815 915 1035> 50 50<115 215> 200 100<160 791.573> 494.5 116<420.25 509.75>
VStem: 115 100<50 200 300 378> 160 55<200 300> 407 116<507.75 597.25> 815 100<100 173.859>
LayerCount: 2
Fore
SplineSet
407 552.5 m 0x33
 407 584.515625 432.984375 610.5 465 610.5 c 0
 497.015625 610.5 523 584.515625 523 552.5 c 0
 523 520.484375 497.015625 494.5 465 494.5 c 0
 432.984375 494.5 407 520.484375 407 552.5 c 0x33
160 300 m 1xb7
 725 300 l 2
 889 300 912 201 915 100 c 1
 1035 100 l 1
 1035 0 l 25
 -20 0 l 1
 -20 100 l 1
 815 100 l 1
 816 156 800 200 725 200 c 2
 160 200 l 1
 160 300 l 1xb7
115 50 m 25x7b
 115 378 l 1x7b
 215 400 l 1x77
 215 50 l 25
 115 50 l 25x7b
EndSplineSet
EndChar
StartChar: arSeen.fina
Encoding: 65558 -1 81
Width: 945
VWidth: 0
Flags: W
HStem: -200 57<121.266 292.118> 0 100<445 545 645 745 845 965> 494.5 116<462.25 551.75 635.25 724.75> 641.5 116<548.25 637.75>
VStem: 25 30<-69.7853 59.8615> 345 100<-83.4002 0 100 328> 449 116<507.75 597.25> 535 116<654.75 744.25> 545 100<100 328> 622 116<507.75 597.25> 745 100<100 328>
LayerCount: 2
Fore
SplineSet
622 552.5 m 0xfc60
 622 584.515625 647.984375 610.5 680 610.5 c 0
 712.015625 610.5 738 584.515625 738 552.5 c 0
 738 520.484375 712.015625 494.5 680 494.5 c 0
 647.984375 494.5 622 520.484375 622 552.5 c 0xfc60
449 552.5 m 0xfe20
 449 584.515625 474.984375 610.5 507 610.5 c 0
 539.015625 610.5 565 584.515625 565 552.5 c 0
 565 520.484375 539.015625 494.5 507 494.5 c 0
 474.984375 494.5 449 520.484375 449 552.5 c 0xfe20
535 699.5 m 0xfd20
 535 731.515625 560.984375 757.5 593 757.5 c 0
 625.015625 757.5 651 731.515625 651 699.5 c 0
 651 667.484375 625.015625 641.5 593 641.5 c 0
 560.984375 641.5 535 667.484375 535 699.5 c 0xfd20
445 -0 m 1
 444 -113 367 -200 216 -200 c 0
 53 -200 25 -62 25 0 c 0
 25 88 88 167 151 207 c 1
 154 182 150 160 131 135 c 1
 152 125 166 100 160 77 c 1
 141 88 129 92 111 90 c 0
 73 86 55 39 55 0 c 0
 55 -76 92 -143 216 -143 c 0
 318 -143 345 -71 345 40 c 2
 345 328 l 1
 445 350 l 1
 445 100 l 1
 545 100 l 1
 545 328 l 1
 645 350 l 1
 645 100 l 1xfca0
 745 100 l 1
 745 328 l 1
 845 350 l 1
 845 100 l 1
 965 100 l 1
 965 0 l 1
 445 -0 l 1
EndSplineSet
EndChar
StartChar: arSeen.init
Encoding: 65560 -1 82
Width: 625
VWidth: 0
Flags: MW
LayerCount: 2
Fore
SplineSet
290 699.5 m 0
 290 731.515625 315.984375 757.5 348 757.5 c 0
 380.015625 757.5 406 731.515625 406 699.5 c 0
 406 667.484375 380.015625 641.5 348 641.5 c 0
 315.984375 641.5 290 667.484375 290 699.5 c 0
204 552.5 m 0
 204 584.515625 229.984375 610.5 262 610.5 c 0
 294.015625 610.5 320 584.515625 320 552.5 c 0
 320 520.484375 294.015625 494.5 262 494.5 c 0
 229.984375 494.5 204 520.484375 204 552.5 c 0
377 552.5 m 0
 377 584.515625 402.984375 610.5 435 610.5 c 0
 467.015625 610.5 493 584.515625 493 552.5 c 0
 493 520.484375 467.015625 494.5 435 494.5 c 0
 402.984375 494.5 377 520.484375 377 552.5 c 0
600 300 m 1
 600 23 l 2
 600 -2 560 0 560 0 c 1
 -20 0 l 1
 -20 100 l 1
 100 100 l 1
 100 278 l 1
 200 300 l 1
 200 100 l 1
 300 100 l 1
 300 278 l 1
 400 300 l 1
 400 100 l 1
 500 100 l 1
 500 278 l 1
 600 300 l 1
EndSplineSet
EndChar
StartChar: arSeen.isol
Encoding: 65557 -1 80
Width: 870
VWidth: 0
Flags: MW
LayerCount: 2
Fore
SplineSet
445 -0 m 1
 444 -113 367 -200 216 -200 c 0
 53 -200 25 -62 25 0 c 0
 25 88 88 167 151 207 c 1
 154 182 150 160 131 135 c 1
 152 125 166 100 160 77 c 1
 141 88 129 92 111 90 c 0
 73 86 55 39 55 0 c 0
 55 -76 92 -143 216 -143 c 0
 318 -143 345 -71 345 40 c 2
 345 278 l 1
 445 300 l 1
 445 100 l 1
 545 100 l 1
 545 278 l 1
 645 300 l 1
 645 100 l 1
 745 100 l 1
 745 278 l 1
 845 300 l 1
 845 23 l 2
 845 -2 805 0 805 0 c 1
 445 -0 l 1
535 699.5 m 0
 535 731.515625 560.984375 757.5 593 757.5 c 0
 625.015625 757.5 651 731.515625 651 699.5 c 0
 651 667.484375 625.015625 641.5 593 641.5 c 0
 560.984375 641.5 535 667.484375 535 699.5 c 0
449 552.5 m 0
 449 584.515625 474.984375 610.5 507 610.5 c 0
 539.015625 610.5 565 584.515625 565 552.5 c 0
 565 520.484375 539.015625 494.5 507 494.5 c 0
 474.984375 494.5 449 520.484375 449 552.5 c 0
622 552.5 m 0
 622 584.515625 647.984375 610.5 680 610.5 c 0
 712.015625 610.5 738 584.515625 738 552.5 c 0
 738 520.484375 712.015625 494.5 680 494.5 c 0
 647.984375 494.5 622 520.484375 622 552.5 c 0
EndSplineSet
EndChar
StartChar: arSeen.medi
Encoding: 65559 -1 83
Width: 625
VWidth: 0
Flags: W
HStem: 0 100<-20 100 200 300 400 500 600 645> 494.5 116<217.25 306.75 390.25 479.75> 641.5 116<303.25 392.75>
VStem: 100 100<100 278> 204 116<507.75 597.25> 290 116<654.75 744.25> 300 100<100 328> 377 116<507.75 597.25> 500 100<100 378>
LayerCount: 2
Fore
SplineSet
377 552.5 m 0xf180
 377 584.515625 402.984375 610.5 435 610.5 c 0
 467.015625 610.5 493 584.515625 493 552.5 c 0
 493 520.484375 467.015625 494.5 435 494.5 c 0
 402.984375 494.5 377 520.484375 377 552.5 c 0xf180
204 552.5 m 0xf880
 204 584.515625 229.984375 610.5 262 610.5 c 0
 294.015625 610.5 320 584.515625 320 552.5 c 0
 320 520.484375 294.015625 494.5 262 494.5 c 0
 229.984375 494.5 204 520.484375 204 552.5 c 0xf880
290 699.5 m 0xf480
 290 731.515625 315.984375 757.5 348 757.5 c 0
 380.015625 757.5 406 731.515625 406 699.5 c 0
 406 667.484375 380.015625 641.5 348 641.5 c 0
 315.984375 641.5 290 667.484375 290 699.5 c 0xf480
645 100 m 1
 645 0 l 1
 -20 0 l 1
 -20 100 l 1
 100 100 l 1
 100 278 l 1
 200 300 l 1
 200 100 l 1
 300 100 l 1
 300 328 l 1
 400 350 l 1
 400 100 l 1xf280
 500 100 l 1
 500 378 l 1
 600 400 l 1
 600 100 l 1
 645 100 l 1
EndSplineSet
EndChar
StartChar: arSharta.mark
Encoding: 65646 -1 169
Width: 0
VWidth: 0
Flags: MW
LayerCount: 2
Fore
SplineSet
211 208 m 1
 -211 -208 l 1
 -210 -160 l 1
 211 255 l 1
 211 208 l 1
EndSplineSet
EndChar
StartChar: arTah.fina
Encoding: 65566 -1 89
Width: 1085
VWidth: 0
Flags: MW
LayerCount: 2
Fore
SplineSet
477 552.5 m 0
 477 584.515625 502.984375 610.5 535 610.5 c 0
 567.015625 610.5 593 584.515625 593 552.5 c 0
 593 520.484375 567.015625 494.5 535 494.5 c 0
 502.984375 494.5 477 520.484375 477 552.5 c 0
230 300 m 1
 795 300 l 2
 959 300 982 201 985 100 c 1
 1105 100 l 1
 1105 0 l 25
 25 0 l 1
 85 100 l 1
 885 100 l 1
 886 156 870 200 795 200 c 2
 230 200 l 1
 230 300 l 1
185 50 m 25
 185 778 l 1
 285 800 l 1
 285 50 l 25
 185 50 l 25
EndSplineSet
EndChar
StartChar: arTah.init
Encoding: 65568 -1 91
Width: 940
VWidth: 0
Flags: MW
LayerCount: 2
Fore
SplineSet
115 50 m 25
 115 778 l 1
 215 800 l 1
 215 50 l 25
 115 50 l 25
407 552.5 m 0
 407 584.515625 432.984375 610.5 465 610.5 c 0
 497.015625 610.5 523 584.515625 523 552.5 c 0
 523 520.484375 497.015625 494.5 465 494.5 c 0
 432.984375 494.5 407 520.484375 407 552.5 c 0
160 300 m 1
 725 300 l 2
 932 300 915 143 915 23 c 0
 915 -2 875 0 875 0 c 2
 -20 0 l 1
 -20 100 l 1
 815 100 l 1
 816 156 800 200 725 200 c 2
 160 200 l 1
 160 300 l 1
EndSplineSet
EndChar
StartChar: arTah.isol
Encoding: 65565 -1 88
Width: 1010
VWidth: 0
Flags: MW
LayerCount: 2
Fore
SplineSet
477 552.5 m 0
 477 584.515625 502.984375 610.5 535 610.5 c 0
 567.015625 610.5 593 584.515625 593 552.5 c 0
 593 520.484375 567.015625 494.5 535 494.5 c 0
 502.984375 494.5 477 520.484375 477 552.5 c 0
185 50 m 25
 185 778 l 1
 285 800 l 1
 285 50 l 25
 185 50 l 25
230 300 m 1
 795 300 l 2
 1002 300 985 143 985 23 c 0
 985 -2 945 0 945 0 c 2
 25 0 l 1
 85 100 l 1
 885 100 l 1
 886 156 870 200 795 200 c 2
 230 200 l 1
 230 300 l 1
EndSplineSet
EndChar
StartChar: arTah.medi
Encoding: 65567 -1 90
Width: 1015
VWidth: 0
Flags: MW
LayerCount: 2
Fore
SplineSet
407 552.5 m 0
 407 584.515625 432.984375 610.5 465 610.5 c 0
 497.015625 610.5 523 584.515625 523 552.5 c 0
 523 520.484375 497.015625 494.5 465 494.5 c 0
 432.984375 494.5 407 520.484375 407 552.5 c 0
160 300 m 1
 725 300 l 2
 889 300 912 201 915 100 c 1
 1035 100 l 1
 1035 0 l 25
 -20 0 l 1
 -20 100 l 1
 815 100 l 1
 816 156 800 200 725 200 c 2
 160 200 l 1
 160 300 l 1
115 50 m 25
 115 778 l 1
 215 800 l 1
 215 50 l 25
 115 50 l 25
EndSplineSet
EndChar
StartChar: arWaw.fina2
Encoding: 65614 -1 137
Width: 400
VWidth: 0
Flags: MW
LayerCount: 2
Fore
SplineSet
420 100 m 1
 420 0 l 1
 174 0 l 1
 224 100 l 1
 420 100 l 1
124 150 m 0
 124 122 146 100 174 100 c 0
 202 100 224 122 224 150 c 0
 224 178 202 200 174 200 c 0
 146 200 124 178 124 150 c 0
25 150 m 0
 25 229 87 295 164 300 c 1
 171 326 182 337 193 349 c 1
 281 294 322 226 322 150 c 0
 322 67 256 0 174 0 c 0
 92 0 25 67 25 150 c 0
222 128 m 9
 318 190 l 17
 328 141 329 71 316 6 c 0
 288 -130 218 -174 154 -178 c 0
 110 -181 59 -171 25 -125 c 1
 205 -154 214 -18 222 128 c 9
EndSplineSet
Refer: 152 -1 N 1 0 0 1 174 400 2
EndChar
StartChar: arWaw.isol
Encoding: 65612 -1 135
Width: 347
VWidth: 0
Flags: MW
LayerCount: 2
Fore
SplineSet
322 -42 m 2
 322 -219 103 -226 37 -132 c 1
 190 -173 222 -109 222 -52 c 2
 222 128 l 9
 322 150 l 17
 322 -42 l 2
322 150 m 17
 173 300 l 1
 208 300 295 294 322 346 c 1
 322 150 l 17
124 150 m 0
 124 122 146 100 174 100 c 0
 202 100 224 122 224 150 c 0
 224 178 202 200 174 200 c 0
 146 200 124 178 124 150 c 0
25 150 m 0
 25 233 91 300 173 300 c 0
 255 300 322 233 322 150 c 0
 322 67 255 0 173 0 c 0
 91 0 25 67 25 150 c 0
EndSplineSet
Refer: 152 -1 N 1 0 0 1 174 400 2
EndChar
StartChar: arYeh.fina1
Encoding: 65624 -1 150
Width: 720
VWidth: 0
Flags: MW
LayerCount: 3
Fore
SplineSet
740 100 m 1
 584 100 l 1
 584 0 l 1
 740 0 l 1
 740 100 l 1
322 100 m 9
 177 100 l 2
 153 100 122 113 109 140 c 1
 25 0 l 1
 380 0 l 25
 322 100 l 9
433 0 m 1
 289 252 l 2
 252 317 266 383 315 410 c 1
 552 0 l 1
 667 0 l 1
 328 591 l 1
 328 539 304 523 263 493 c 0
 182 433 120 345 202 203 c 2
 318 0 l 1
 433 0 l 1
EndSplineSet
Layer: 2
Refer: 159 -1 N 1 0 0 1 240 -150 2
Refer: 152 -1 N 1 0 0 1 40 200 2
EndChar
StartChar: arYeh.isol
Encoding: 65620 -1 143
Width: 725
VWidth: 0
Flags: MW
LayerCount: 2
Fore
SplineSet
372 -100 m 9
 177 -100 l 2
 153 -100 122 -87 109 -60 c 1
 25 -200 l 1
 430 -200 l 25
 372 -100 l 9
525 0 m 25
 700 0 l 1
 616 140 l 1
 603 113 572 100 548 100 c 2
 495 100 l 1
 525 0 l 25
507 -200 m 1
 249 252 l 2
 212 317 226 383 275 410 c 1
 512 0 l 1
 627 0 l 1
 288 591 l 1
 288 539 264 523 223 493 c 0
 142 433 80 345 162 203 c 2
 393 -200 l 1
 507 -200 l 1
EndSplineSet
Refer: 159 -1 N 1 0 0 1 240 -300 2
EndChar
StartChar: arYeh.isol1
Encoding: 65621 -1 144
Width: 765
VWidth: 0
Flags: W
HStem: 0 100<122.701 177 588 612>
DStem2: 433 0 322 100 0.496139 -0.868243<-141.896 -26.2954>
LayerCount: 2
Fore
SplineSet
322 100 m 9
 177 100 l 2
 153 100 122 113 109 140 c 1
 25 0 l 1
 380 0 l 25
 322 100 l 9
565 0 m 25
 740 0 l 1
 656 140 l 1
 643 113 612 100 588 100 c 2
 535 100 l 1
 565 0 l 25
433 0 m 1
 289 252 l 2
 252 317 266 383 315 410 c 1
 552 0 l 1
 667 0 l 1
 328 591 l 1
 328 539 304 523 263 493 c 0
 182 433 120 345 202 203 c 2
 318 0 l 1
 433 0 l 1
EndSplineSet
EndChar
StartChar: arYehBarree.fina
Encoding: 65625 -1 151
Width: 1045
VWidth: 0
Flags: W
LayerCount: 2
Fore
SplineSet
1065 100 m 1
 444 100 l 1
 444 0 l 1
 1065 0 l 1
 1065 100 l 1
320 -200 m 25
 1020 -200 l 1
 960 -100 l 1
 320 -100 l 9
 320 -200 l 25
409 -200 m 1
 151 252 l 2
 114 317 128 383 177 410 c 1
 414 0 l 1
 529 0 l 1
 190 591 l 1
 190 539 166 523 125 493 c 0
 44 433 -18 345 64 203 c 2
 295 -200 l 1
 409 -200 l 1
EndSplineSet
EndChar
